<svg width="360" height="360" viewBox="0 0 360 360" xmlns="http://www.w3.org/2000/svg">
  <title>loctree — dirty branches need fixing</title>

  <!-- Dark brutal background -->
  <rect width="360" height="360" fill="#0a0a0f" rx="24"/>

  <!-- The trunk — the only clean thing -->
  <line x1="180" y1="310" x2="180" y2="200"
        stroke="#e0e0e0" stroke-width="3" stroke-linecap="round"/>

  <!-- Root node -->
  <circle cx="180" cy="320" r="10" fill="#f0f0f0"/>

  <!-- Dirty, chaotic branches — NOT aligned, crossing each other -->
  <!-- These are the "problems" we expose -->
  <g stroke="#505060" stroke-width="1.5" stroke-linecap="round" opacity="0.6">
    <!-- Messy connections from trunk -->
    <path d="M180 200 Q160 180 120 175" fill="none"/>
    <path d="M180 200 Q200 175 250 185" fill="none"/>
    <path d="M180 200 Q170 160 140 130" fill="none"/>
    <path d="M180 200 Q195 150 230 120" fill="none"/>

    <!-- Cross-connections (the spaghetti) -->
    <path d="M120 175 Q150 150 140 130" fill="none" opacity="0.4"/>
    <path d="M250 185 Q240 150 230 120" fill="none" opacity="0.4"/>
    <path d="M140 130 Q180 110 230 120" fill="none" stroke-dasharray="4 4" opacity="0.3"/>

    <!-- Orphan branches going nowhere -->
    <path d="M120 175 Q90 160 70 170" fill="none"/>
    <path d="M250 185 Q280 175 300 190" fill="none"/>
    <path d="M140 130 Q110 100 80 90" fill="none"/>
    <path d="M230 120 Q260 90 290 80" fill="none"/>

    <!-- Circular dependency hint -->
    <path d="M80 90 Q60 130 70 170" fill="none" stroke-dasharray="3 3" opacity="0.5"/>
  </g>

  <!-- Scattered nodes — the files/modules -->
  <!-- Top row — orphans -->
  <circle cx="80" cy="90" r="7" fill="#707080"/>
  <circle cx="180" cy="70" r="6" fill="#606070"/>
  <circle cx="290" cy="80" r="7" fill="#707080"/>

  <!-- Middle row -->
  <circle cx="140" cy="130" r="8" fill="#808090"/>
  <circle cx="230" cy="120" r="8" fill="#808090"/>

  <!-- Lower branches -->
  <circle cx="120" cy="175" r="8" fill="#909098"/>
  <circle cx="250" cy="185" r="8" fill="#909098"/>

  <!-- Edge orphans -->
  <circle cx="70" cy="170" r="6" fill="#505060"/>
  <circle cx="300" cy="190" r="6" fill="#505060"/>

  <!-- The center node — brightest, the entry point -->
  <circle cx="180" cy="200" r="9" fill="#d0d0d8"/>

</svg>
