<svg width="360" height="360" viewBox="0 0 360 360" xmlns="http://www.w3.org/2000/svg" role="img" aria-labelledby="title desc">
  <title id="title">Loctree Signal Tree</title>
  <desc id="desc">Angular, unsettling tree silhouette built from shards and nodes.</desc>
  <defs>
    <linearGradient id="glow" x1="0%" y1="0%" x2="100%" y2="100%">
      <stop offset="0%" stop-color="#7ad7ff" />
      <stop offset="100%" stop-color="#8ef5c8" />
    </linearGradient>
  </defs>
  <rect width="360" height="360" fill="#03050a" rx="28"/>
  <g fill="none" stroke="url(#glow)" stroke-width="9" stroke-linecap="round" stroke-linejoin="round">
    <path d="M180 308c0-38 6-78 22-112 16-34 42-62 72-82" opacity="0.9"/>
    <path d="M180 308c0-32-12-64-30-90-18-26-42-46-72-64" opacity="0.7"/>
    <path d="M180 252c-8-18-24-32-46-46" opacity="0.9"/>
    <path d="M180 240c12-20 28-34 54-46" opacity="0.9"/>
    <path d="M180 196c-4-16-14-30-34-44" opacity="0.8"/>
    <path d="M180 188c10-18 24-32 48-46" opacity="0.8"/>
    <path d="M180 152c-2-18-12-36-32-56" opacity="0.75"/>
    <path d="M180 148c16-18 38-30 64-36" opacity="0.75"/>
    <path d="M180 112c0-22 10-42 26-64" opacity="0.85"/>
  </g>
  <g fill="#f5f6f7" stroke="#0c0f18" stroke-width="3">
    <circle cx="180" cy="308" r="11"/>
    <circle cx="202" cy="196" r="9"/>
    <circle cx="156" cy="196" r="9"/>
    <circle cx="234" cy="148" r="9"/>
    <circle cx="140" cy="136" r="9"/>
    <circle cx="246" cy="94" r="8"/>
    <circle cx="128" cy="92" r="8"/>
    <circle cx="282" cy="114" r="10"/>
    <circle cx="102" cy="132" r="10"/>
    <circle cx="294" cy="180" r="9"/>
    <circle cx="90" cy="188" r="9"/>
  </g>
</svg>
